<?xml version="1.0"?>
<svg width="250mm" height="200mm" viewBox="0 0   3200    1500"
     xmlns="http://www.w3.org/2000/svg"
     xmlns:xlink="http://www.w3.org/1999/xlink"
     xmlns:ev="http://www.w3.org/2001/xml-events">
<g font-family="Verdana" font-size="8" >
  <rect x="   800" y="   140" width="   200" height="    20" style = "fill:orange; stroke: Black;"/>     1
  <text x="   802" y="   153">MIXED WATER HEATER</text>
  <rect x="   700" y="   460" width="   200" height="    20" style = "fill:orange; stroke: Black;"/>     2
  <text x="   702" y="   473">WATER HEATER MIXED 1</text>
  <rect x="  2000" y="   140" width="   200" height="    20" style = "fill:wheat; stroke: Black;"/>     6
  <text  x="  2002" y="   148">SERVICE HOT WATER LOOP DEMAND
  <tspan x="  2002" y="   156">SPLITTER</tspan></text>
  <rect x="  2600" y="   340" width="   200" height="    20" style = "fill:wheat; stroke: Black;"/>     7
  <text x="  2602" y="   353">SERVICE HOT WATER LOOP DEMAND MIXER</text>
  <rect x="   500" y="   100" width="   200" height="    20" style = "fill:wheat; stroke: Black;"/>     8
  <text  x="   502" y="   108">SERVICE HOT WATER LOOP SUPPLY
  <tspan x="   502" y="   116">SPLITTER</tspan></text>
  <rect x="  1100" y="   140" width="   200" height="    20" style = "fill:wheat; stroke: Black;"/>     9
  <text x="  1102" y="   153">SERVICE HOT WATER LOOP SUPPLY MIXER</text>
  <rect x="  1700" y="   460" width="   200" height="    20" style = "fill:wheat; stroke: Black;"/>    10
  <text  x="  1702" y="   468">SERVICE HOT WATER LOOP 1 DEMAND
  <tspan x="  1702" y="   476">SPLITTER</tspan></text>
  <rect x="  2200" y="   500" width="   200" height="    20" style = "fill:wheat; stroke: Black;"/>    11
  <text  x="  2202" y="   508">SERVICE HOT WATER LOOP 1 DEMAND
  <tspan x="  2202" y="   516">MIXER</tspan></text>
  <rect x="   450" y="   420" width="   200" height="    20" style = "fill:wheat; stroke: Black;"/>    12
  <text  x="   452" y="   428">SERVICE HOT WATER LOOP 1 SUPPLY
  <tspan x="   452" y="   436">SPLITTER</tspan></text>
  <rect x="   950" y="   460" width="   200" height="    20" style = "fill:wheat; stroke: Black;"/>    13
  <text  x="   952" y="   468">SERVICE HOT WATER LOOP 1 SUPPLY
  <tspan x="   952" y="   476">MIXER</tspan></text>
  <rect x="  1200" y="    20" width="   200" height="    20" style = "fill:chartreuse; stroke: Black;"/>    14
  <text x="  1202" y="    33">LIVING</text>
  <rect x="  2300" y="   140" width="   200" height="    20" style = "fill:wheat; stroke: Black;"/>    15
  <text x="  2302" y="   153">WATER USE CONNECTIONS 1</text>
  <rect x="  2300" y="   180" width="   200" height="    20" style = "fill:wheat; stroke: Black;"/>    16
  <text x="  2302" y="   193">WATER USE CONNECTIONS 2</text>
  <rect x="  2300" y="   220" width="   200" height="    20" style = "fill:wheat; stroke: Black;"/>    17
  <text x="  2302" y="   233">WATER USE CONNECTIONS 3</text>
  <rect x="  2300" y="   260" width="   200" height="    20" style = "fill:wheat; stroke: Black;"/>    18
  <text x="  2302" y="   273">WATER USE CONNECTIONS 4</text>
  <rect x="  2300" y="   300" width="   200" height="    20" style = "fill:wheat; stroke: Black;"/>    19
  <text x="  2302" y="   313">WATER USE CONNECTIONS 5</text>
  <rect x="   950" y="    20" width="   200" height="    20" style = "fill:wheat; stroke: Black;"/>    20
  <text x="   952" y="    33">ZONE SPLITTER</text>
  <rect x="  1450" y="    20" width="   200" height="    20" style = "fill:wheat; stroke: Black;"/>    21
  <text x="  1452" y="    33">AIR LOOP HVAC ZONE MIXER 1</text>
  <rect x="   200" y="    20" width="   200" height="    20" style = "fill:silver; stroke: Black;"/>    22
  <text x="   202" y="    33">SUPPLY FAN</text>
  <rect x="   700" y="    20" width="   200" height="    20" style = "fill:salmon; stroke: Black;"/>    23
  <text x="   702" y="    33">FURNACE HEATING COIL 1</text>
  <rect x="   450" y="    20" width="   200" height="    20" style = "fill:skyblue; stroke: Black;"/>    24
  <text x="   452" y="    33">DX COOLING COIL</text>
  <rect x="   800" y="   100" width="   200" height="    20" style = "fill:wheat; stroke: Black;"/>    25
  <text x="   802" y="   113">PIPE ADIABATIC 1</text>
  <rect x="  1400" y="   140" width="   200" height="    20" style = "fill:wheat; stroke: Black;"/>    26
  <text  x="  1402" y="   148">SERVICE HOT WATER LOOP SUPPLY
  <tspan x="  1402" y="   156">OUTLET PIPE</tspan></text>
  <rect x="  1700" y="   140" width="   200" height="    20" style = "fill:wheat; stroke: Black;"/>    27
  <text  x="  1702" y="   148">SERVICE HOT WATER LOOP DEMAND INLET
  <tspan x="  1702" y="   156">PIPE</tspan></text>
  <rect x="  2300" y="   340" width="   200" height="    20" style = "fill:wheat; stroke: Black;"/>    28
  <text  x="  2302" y="   348">SERVICE HOT WATER LOOP DEMAND
  <tspan x="  2302" y="   356">BYPASS PIPE</tspan></text>
  <rect x="  2900" y="   340" width="   200" height="    20" style = "fill:wheat; stroke: Black;"/>    29
  <text  x="  2902" y="   348">SERVICE HOT WATER LOOP DEMAND
  <tspan x="  2902" y="   356">OUTLET PIPE</tspan></text>
  <rect x="   700" y="   420" width="   200" height="    20" style = "fill:wheat; stroke: Black;"/>    30
  <text x="   702" y="   433">PIPE ADIABATIC 2</text>
  <rect x="  1200" y="   460" width="   200" height="    20" style = "fill:wheat; stroke: Black;"/>    31
  <text x="  1202" y="   473">PIPE ADIABATIC 3</text>
  <rect x="  1450" y="   460" width="   200" height="    20" style = "fill:wheat; stroke: Black;"/>    32
  <text  x="  1452" y="   468">SERVICE HOT WATER LOOP 1 DEMAND
  <tspan x="  1452" y="   476">INLET PIPE</tspan></text>
  <rect x="  1950" y="   460" width="   200" height="    20" style = "fill:wheat; stroke: Black;"/>    33
  <text  x="  1952" y="   468">SERVICE HOT WATER LOOP 1 DEMAND
  <tspan x="  1952" y="   476">BRANCH 1 PIPE</tspan></text>
  <rect x="  1950" y="   500" width="   200" height="    20" style = "fill:wheat; stroke: Black;"/>    34
  <text  x="  1952" y="   508">SERVICE HOT WATER LOOP 1 DEMAND
  <tspan x="  1952" y="   516">BYPASS PIPE</tspan></text>
  <rect x="  2450" y="   500" width="   200" height="    20" style = "fill:wheat; stroke: Black;"/>    35
  <text  x="  2452" y="   508">SERVICE HOT WATER LOOP 1 DEMAND
  <tspan x="  2452" y="   516">OUTLET PIPE</tspan></text>
  <rect x="   200" y="   100" width="   200" height="    20" style = "fill:springgreen; stroke: Black;"/>    36
  <text x="   202" y="   113">PUMP CONSTANT SPEED 1</text>
  <rect x="   200" y="   420" width="   200" height="    20" style = "fill:springgreen; stroke: Black;"/>    37
  <text x="   202" y="   433">PUMP CONSTANT SPEED 2</text>
  <line x1="  1000" y1="   150" x2="  1100" y2="   150" style = "stroke: Black;"/>
  <line x1="   900" y1="   470" x2="   950" y2="   470" style = "stroke: Black;"/>
  <line x1="  2200" y1="   150" x2="  2300" y2="   150" style = "stroke: Black;"/>
  <line x1="  2200" y1="   150" x2="  2300" y2="   190" style = "stroke: Black;"/>
  <line x1="  2200" y1="   150" x2="  2300" y2="   230" style = "stroke: Black;"/>
  <line x1="  2200" y1="   150" x2="  2300" y2="   270" style = "stroke: Black;"/>
  <line x1="  2200" y1="   150" x2="  2300" y2="   310" style = "stroke: Black;"/>
  <line x1="  2200" y1="   150" x2="  2300" y2="   350" style = "stroke: Black;"/>
  <line x1="  2800" y1="   350" x2="  2900" y2="   350" style = "stroke: Black;"/>
  <line x1="   700" y1="   110" x2="   800" y2="   110" style = "stroke: Black;"/>
  <line x1="   700" y1="   110" x2="   800" y2="   150" style = "stroke: Black;"/>
  <line x1="  1300" y1="   150" x2="  1400" y2="   150" style = "stroke: Black;"/>
  <line x1="  1900" y1="   470" x2="  1950" y2="   470" style = "stroke: Black;"/>
  <line x1="  1900" y1="   470" x2="  1950" y2="   510" style = "stroke: Black;"/>
  <line x1="  2400" y1="   510" x2="  2450" y2="   510" style = "stroke: Black;"/>
  <line x1="   650" y1="   430" x2="   700" y2="   430" style = "stroke: Black;"/>
  <line x1="   650" y1="   430" x2="   700" y2="   470" style = "stroke: Black;"/>
  <line x1="  1150" y1="   470" x2="  1200" y2="   470" style = "stroke: Black;"/>
  <line x1="  2500" y1="   150" x2="  2600" y2="   350" style = "stroke: Black;"/>
  <line x1="  2500" y1="   190" x2="  2600" y2="   350" style = "stroke: Black;"/>
  <line x1="  2500" y1="   230" x2="  2600" y2="   350" style = "stroke: Black;"/>
  <line x1="  2500" y1="   270" x2="  2600" y2="   350" style = "stroke: Black;"/>
  <line x1="  2500" y1="   310" x2="  2600" y2="   350" style = "stroke: Black;"/>
  <line x1="  1150" y1="    30" x2="  1200" y2="    30" style = "stroke: Black;"/>
  <line x1="   400" y1="    30" x2="   450" y2="    30" style = "stroke: Black;"/>
  <line x1="   900" y1="    30" x2="   950" y2="    30" style = "stroke: Black;"/>
  <line x1="   650" y1="    30" x2="   700" y2="    30" style = "stroke: Black;"/>
  <line x1="  1000" y1="   110" x2="  1100" y2="   150" style = "stroke: Black;"/>
  <line x1="  1600" y1="   150" x2="  1700" y2="   150" style = "stroke: Black;"/>
  <line x1="  1900" y1="   150" x2="  2000" y2="   150" style = "stroke: Black;"/>
  <line x1="  2500" y1="   350" x2="  2600" y2="   350" style = "stroke: Black;"/>
  <line x1="   900" y1="   430" x2="   950" y2="   470" style = "stroke: Black;"/>
  <line x1="  1400" y1="   470" x2="  1450" y2="   470" style = "stroke: Black;"/>
  <line x1="  1650" y1="   470" x2="  1700" y2="   470" style = "stroke: Black;"/>
  <line x1="  2150" y1="   470" x2="  2200" y2="   510" style = "stroke: Black;"/>
  <line x1="  2150" y1="   510" x2="  2200" y2="   510" style = "stroke: Black;"/>
  <line x1="   400" y1="   110" x2="   500" y2="   110" style = "stroke: Black;"/>
  <line x1="   400" y1="   430" x2="   450" y2="   430" style = "stroke: Black;"/>
  <line x1="  1400" y1="    30" x2="  1450" y2="    30" style = "stroke: Black;"/>
  <line x1="   200" y1="    30" x2="   175" y2="    30" style = "stroke: Black;"/>
  <line x1="   175" y1="    30" x2="   175" y2="     0" style = "stroke: Black;"/>
  <line x1="   175" y1="     0" x2="  1675" y2="     0" style = "stroke: Black;"/>
  <line x1="  1675" y1="     0" x2="  1675" y2="    30" style = "stroke: Black;"/>
  <line x1="  1675" y1="    30" x2="  1650" y2="    30" style = "stroke: Black;"/>
  <line x1="   200" y1="   110" x2="   175" y2="   110" style = "stroke: Black;"/>
  <line x1="   175" y1="   110" x2="   175" y2="    80" style = "stroke: Black;"/>
  <line x1="   175" y1="    80" x2="  3125" y2="    80" style = "stroke: Black;"/>
  <line x1="  3125" y1="    80" x2="  3125" y2="   350" style = "stroke: Black;"/>
  <line x1="  3125" y1="   350" x2="  3100" y2="   350" style = "stroke: Black;"/>
  <line x1="   200" y1="   430" x2="   175" y2="   430" style = "stroke: Black;"/>
  <line x1="   175" y1="   430" x2="   175" y2="   400" style = "stroke: Black;"/>
  <line x1="   175" y1="   400" x2="  2675" y2="   400" style = "stroke: Black;"/>
  <line x1="  2675" y1="   400" x2="  2675" y2="   510" style = "stroke: Black;"/>
  <line x1="  2675" y1="   510" x2="  2650" y2="   510" style = "stroke: Black;"/>
  <text x="   200" y="   560">Unused Non-Parent Objects:</text>
  <text x="   220" y="   580">SETPOINT MANAGER SCHEDULED 2</text>
  <text x="   220" y="   600">SETPOINT MANAGER SCHEDULED 1</text>
  <text x="   220" y="   620">SETPOINT MANAGER SINGLE ZONE REHEAT 1</text>
  <text x="   200" y="   660">
The following are not supported: objects related to controls, AirTerminal:SingleDuct:Uncontrolled, or ZoneHVAC:IdealLoadsAirSystem</text>
</g>
</svg>
